<?xml version="1.0" encoding="UTF-8"?>
<svg version="1.1" xmlns="http://www.w3.org/2000/svg" width="2648" height="1546">
<path d="M0 0 C873.84 0 1747.68 0 2648 0 C2648 510.18 2648 1020.36 2648 1546 C1774.16 1546 900.32 1546 0 1546 C0 1035.82 0 525.64 0 0 Z " fill="#FEFEFE" transform="translate(0,0)"/>
<path d="M0 0 C1.27356219 0.41612896 2.54898616 0.82658708 3.82585144 1.23246765 C8.39577716 2.68856898 12.94754156 4.19736621 17.5 5.70703125 C19.20540176 6.27019561 20.91089392 6.83308626 22.61647034 7.39572144 C26.21700753 8.58398626 29.81699481 9.77389613 33.41653442 10.96517944 C39.0409534 12.82651299 44.66666941 14.68390193 50.29272461 16.5402832 C51.22102679 16.84658881 52.14932898 17.15289442 53.10576153 17.46848202 C54.96787156 18.08288911 56.8299877 18.69727768 58.69211006 19.31164742 C61.4544826 20.22314365 64.21674521 21.13497236 66.97898865 22.04685974 C79.83092983 26.28893707 92.68986598 30.50856589 105.5625 34.6875 C106.36967468 34.94965302 107.17684937 35.21180603 108.00848389 35.48190308 C111.2083994 36.52112628 114.40837101 37.56017609 117.60852051 38.59867859 C128.11852918 42.0102661 138.62137675 45.44381572 149.125 48.875 C151.19278693 49.55038286 153.26057664 50.22575722 155.32836914 50.90112305 C159.47837766 52.25659727 163.62835715 53.61216034 167.77832031 54.96777344 C173.94322599 56.98152832 180.10830321 58.99475764 186.2734375 61.0078125 C187.282854 61.33740967 188.29227051 61.66700684 189.33227539 62.0065918 C192.38818065 63.00440355 195.44408959 64.00220404 198.5 65 C209.78067263 68.68329175 221.06133818 72.36660467 232.34153748 76.05134583 C253.53288976 82.97360062 274.72603814 89.89020311 295.92547607 96.78765869 C312.06818175 102.04033953 328.20383818 107.3144664 344.33843994 112.59197998 C360.83602852 117.98796356 377.3377584 123.37102553 393.84423828 128.73974609 C403.60061781 131.91351917 413.35435405 135.09524109 423.10546875 138.28515625 C425.3369939 139.01489728 427.56852059 139.74463363 429.80004883 140.47436523 C434.07502843 141.87238985 438.34953139 143.27185933 442.6237793 144.67211914 C444.59031418 145.3153215 446.55686609 145.95847181 448.5234375 146.6015625 C449.39151535 146.88641006 450.2595932 147.17125763 451.15397644 147.46473694 C455.77210563 148.9735121 460.40129725 150.43385421 465.04882812 151.84960938 C473.3047019 154.37916345 481.49720764 157.09519182 489.6953125 159.8046875 C491.3979009 160.36628607 493.10053357 160.92775044 494.8032074 161.48908997 C498.3914921 162.67227926 501.97954744 163.85616024 505.56741333 165.0406189 C514.88887015 168.11772824 524.21202269 171.18969421 533.53515625 174.26171875 C534.44672171 174.5621213 535.35828716 174.86252384 536.29747581 175.1720295 C553.99969134 181.00533217 571.71647055 186.79250786 589.44534302 192.54428101 C596.29625309 194.76825058 603.14250543 197.00637664 609.98828125 199.24609375 C611.10282181 199.61061142 612.21736237 199.97512909 613.36567688 200.35069275 C622.25690112 203.25869158 622.25690112 203.25869158 626.54983521 204.66513062 C636.30162239 207.85983646 646.05090397 211.04092169 655.86962891 214.02490234 C663.16476908 216.29730835 670.39284985 218.78125878 677.63427734 221.21826172 C684.56887076 223.5499531 691.49960529 225.87170663 698.5 228 C706.93599747 230.56475217 715.27834251 233.40618665 723.63427734 236.21826172 C725.74532615 236.92808189 727.8570262 237.63594092 729.96875 238.34375 C731.81629883 238.96540039 731.81629883 238.96540039 733.70117188 239.59960938 C737.08457797 240.71832078 740.48711951 241.7648551 743.89599609 242.80322266 C752.20303425 245.34798277 760.44653995 248.07844601 768.6953125 250.8046875 C770.3979009 251.36628607 772.10053357 251.92775044 773.8032074 252.48908997 C777.3914921 253.67227926 780.97954744 254.85616024 784.56741333 256.0406189 C793.88887015 259.11772824 803.21202269 262.18969421 812.53515625 265.26171875 C813.44672171 265.5621213 814.35828716 265.86252384 815.29747581 266.1720295 C829.04444901 270.70198538 842.79620567 275.2165345 856.5625 279.6875 C857.36786194 279.94907898 858.17322388 280.21065796 859.00299072 280.48016357 C862.19566353 281.5169399 865.38840512 282.55350378 868.58129883 283.58959961 C878.17566355 286.70401613 887.76345592 289.83856405 897.35180664 292.97143555 C906.56742476 295.98232342 915.78374346 298.99106699 925 302 C926.51077118 302.49327789 926.51077118 302.49327789 928.05206299 302.996521 C933.96577143 304.92725906 939.87984858 306.85686093 945.79443359 308.78491211 C947.60330364 309.37473329 949.4120649 309.96488825 951.22070312 310.55541992 C953.73146441 311.37512923 956.24263784 312.19356458 958.75390625 313.01171875 C959.45620865 313.24130783 960.15851105 313.47089691 960.88209534 313.70744324 C965.05728987 315.06602287 969.24240379 316.3889106 973.43561172 317.69091415 C982.98774451 320.65859072 992.49112317 323.76377661 1001.98828125 326.90234375 C1003.68658332 327.46250886 1005.38492831 328.0225439 1007.08331299 328.5824585 C1010.65365911 329.75970011 1014.22378688 330.93760035 1017.79373169 332.11605835 C1027.07493254 335.17965751 1036.35777719 338.23827058 1045.640625 341.296875 C1046.54770769 341.59578329 1047.45479038 341.89469158 1048.38936043 342.2026577 C1066.06100108 348.0255256 1083.74715169 353.8024644 1101.44529724 359.54426575 C1108.29622228 361.76824132 1115.14249014 364.00637164 1121.98828125 366.24609375 C1123.10282181 366.61061142 1124.21736237 366.97512909 1125.36567688 367.35069275 C1134.25690112 370.25869158 1134.25690112 370.25869158 1138.54983521 371.66513062 C1153.40440664 376.54204387 1153.40440664 376.54204387 1168.34130859 381.15844727 C1182.81805579 385.7407565 1193.15999742 392.59774509 1200.3125 406.1875 C1204.91082804 415.4035583 1204.36983074 428.79232801 1202.19921875 438.62890625 C1198.14189194 449.32296006 1189.99452849 457.64316617 1180 463 C1169.55700121 467.47750588 1158.65302352 470.87291163 1147.875 474.4375 C1146.01762454 475.05409391 1144.16028483 475.6707955 1142.30297852 476.28759766 C1125.03978587 482.01331498 1107.74482625 487.64113216 1090.4453125 493.25593567 C1080.49847251 496.48536015 1070.55768126 499.73326366 1060.61697388 502.98150635 C1043.37268964 508.61620036 1026.12520751 514.24096074 1008.87402344 519.85449219 C994.41297595 524.56036924 979.95573284 529.27782406 965.5 534 C949.29426446 539.29383984 933.08580033 544.5791836 916.87402344 549.85449219 C903.45395743 554.22161571 890.03699503 558.59817296 876.62182617 562.98031616 C870.42145344 565.00554739 864.22077636 567.0298467 858.0201416 569.05427551 C853.11599005 570.65554042 848.21203699 572.25740711 843.30859375 573.86083984 C837.87298771 575.63820858 832.43682347 577.41385867 827 579.1875 C826.12286346 579.47365173 825.24572693 579.75980347 824.3420105 580.05462646 C811.27087455 584.31557416 798.17383938 588.48962509 785.0625 592.625 C771.8466934 596.79404332 758.67134177 601.06433923 745.5335083 605.47277832 C731.52324744 610.17386056 717.48536984 614.7875582 703.4375 619.375 C702.32413269 619.7386264 701.21076538 620.10225281 700.06365967 620.47689819 C683.41837441 625.91218247 666.76920501 631.33556748 650.11791992 636.75244141 C640.58575424 639.85367628 631.05539485 642.96036324 621.52734375 646.07421875 C619.94521843 646.59123604 619.94521843 646.59123604 618.33113098 647.11869812 C614.08695495 648.50569367 609.84279166 649.89272796 605.5987854 651.28024292 C591.66336202 655.83573674 577.71544379 660.34969248 563.75439453 664.82592773 C556.66618603 667.10867971 549.6316245 669.50026367 542.62988281 672.03466797 C538.21583146 673.61721208 533.76014477 674.97520381 529.25 676.25 C520.01642316 678.86141596 510.985331 682.05912938 501.94238281 685.25878906 C495.69457464 687.45181977 489.44778853 689.48707384 483.08544922 691.31469727 C474.40067877 693.84180188 465.81143395 696.61963626 457.2265625 699.46484375 C455.6645288 699.98020713 454.10240794 700.49530641 452.54020691 701.01016235 C449.25829279 702.09228416 445.97690298 703.17597427 442.69595337 704.26101685 C437.55435208 705.96130796 432.41148577 707.65774809 427.26831055 709.35327148 C425.98798966 709.77535244 425.98798966 709.77535244 424.6818037 710.20596027 C422.96813243 710.7708856 421.25445568 711.33579435 419.54077339 711.90068626 C416.99967444 712.73843141 414.45868194 713.57649875 411.91770935 714.41462708 C399.55801212 718.49076556 387.19066684 722.54276074 374.8125 726.5625 C374.00012878 726.82638519 373.18775757 727.09027039 372.35076904 727.3621521 C369.10960612 728.41495807 365.8684322 729.46773005 362.62713623 730.52012634 C355.95603675 732.6870148 349.28822478 734.86390392 342.62109375 737.04296875 C341.55063309 737.39279312 340.48017242 737.74261749 339.37727356 738.1030426 C335.18794318 739.47222801 330.99863948 740.84149361 326.8097229 742.21194458 C315.52619951 745.90338212 304.23575157 749.57230316 292.93499756 753.21066284 C277.86251469 758.06366078 262.81199116 762.9813621 247.77005005 767.9281311 C240.78887259 770.22395116 233.80654471 772.5162695 226.82421875 774.80859375 C225.7884158 775.14868249 225.7884158 775.14868249 224.73168755 775.49564171 C212.68094967 779.45200524 200.62454124 783.39072836 188.5625 787.3125 C187.72360229 787.58525757 186.88470459 787.85801514 186.02038574 788.13903809 C184.32939738 788.68881475 182.6384082 789.23858892 180.94741821 789.7883606 C180.11012177 790.06058441 179.27282532 790.33280823 178.41015625 790.61328125 C177.57551849 790.88461884 176.74088074 791.15595642 175.88095093 791.43551636 C166.12856091 794.60695253 156.38062896 797.7920342 146.63253784 800.97665405 C129.75673822 806.48968599 112.88006996 812.00005555 96 817.5 C95.10040558 817.79321136 94.20081116 818.08642273 93.2739563 818.38851929 C82.04432162 822.04782048 70.80202056 825.66190083 59.54296875 829.22973633 C51.03628699 831.94608783 42.61502785 834.89539272 34.18798828 837.84790039 C27.43926678 840.19798418 20.67532322 842.37964298 13.79736328 844.31787109 C10.45574133 845.26226063 7.15838393 846.26647611 3.87890625 847.41015625 C3.20561279 847.64444336 2.53231934 847.87873047 1.83862305 848.12011719 C0.01137135 848.76441481 -1.81094283 849.42266862 -3.6328125 850.08203125 C-9.81308226 851.76690758 -14.80885666 851.02196572 -20.81347656 849.01904297 C-21.45827721 848.80717346 -22.10307785 848.59530396 -22.76741791 848.37701416 C-24.89520284 847.67518326 -27.01776193 846.95875407 -29.140625 846.2421875 C-30.65042601 845.74109846 -32.16054482 845.24096605 -33.67095947 844.74172974 C-36.87389018 843.68095827 -40.07460842 842.61385211 -43.27368164 841.54150391 C-48.2669836 839.86775356 -53.26485577 838.20797877 -58.26367188 836.55078125 C-64.0518769 834.63103547 -69.8391277 832.70847701 -75.62492371 830.7814827 C-87.56716331 826.80456963 -99.52793921 822.88619585 -111.5 819 C-113.20600072 818.44498985 -114.91197464 817.88989732 -116.61791992 817.3347168 C-126.55308875 814.10403075 -136.50380214 810.92453682 -146.46289062 807.76831055 C-154.87639402 805.08195752 -163.21711257 802.19320962 -171.53735352 799.23120117 C-177.264175 797.21236 -183.02136909 795.38546963 -188.85595703 793.70556641 C-197.55974592 791.17019993 -206.16903405 788.38683706 -214.7734375 785.53515625 C-216.3354712 785.01979287 -217.89759206 784.50469359 -219.45979309 783.98983765 C-222.74170721 782.90771584 -226.02309702 781.82402573 -229.30404663 780.73898315 C-234.44564792 779.03869204 -239.58851423 777.34225191 -244.73168945 775.64672852 C-245.58523671 775.36534122 -246.43878397 775.08395391 -247.3181963 774.79403973 C-249.03186757 774.2291144 -250.74554432 773.66420565 -252.45922661 773.09931374 C-255.00032556 772.26156859 -257.54131806 771.42350125 -260.08229065 770.58537292 C-272.44198883 766.50923412 -284.80939514 762.45743196 -297.1875 758.4375 C-298.83691454 757.90161281 -300.48632861 757.36572414 -302.13574219 756.82983398 C-304.57526687 756.03732583 -307.01481391 755.2448869 -309.45443726 754.4526825 C-320.01530223 751.02242189 -330.56986375 747.57283827 -341.125 744.125 C-343.1879046 743.4512462 -345.2508115 742.77749945 -347.3137207 742.10375977 C-354.58414859 739.72917612 -361.85445164 737.35421031 -369.12475586 734.97924805 C-376.37476323 732.61093875 -383.6248327 730.24281968 -390.875 727.875 C-391.89474915 727.54195862 -392.91449829 727.20891724 -393.96514893 726.86578369 C-409.01657786 721.95044099 -424.07102792 717.04444658 -439.12762451 712.1449585 C-454.62984856 707.10027298 -470.12749959 702.04165768 -485.62402344 696.97949219 C-499.9134685 692.31181565 -514.20528071 687.65149847 -528.5 683 C-542.79692179 678.34778484 -557.09092825 673.68672653 -571.38256836 669.01831055 C-588.2534835 663.50741799 -605.12497617 657.9983003 -622 652.5 C-622.89959442 652.20678864 -623.79918884 651.91357727 -624.7260437 651.61148071 C-635.95567838 647.95217952 -647.19797944 644.33809917 -658.45703125 640.77026367 C-666.87243155 638.08306014 -675.21516313 635.19390363 -683.53735352 632.23120117 C-689.264175 630.21236 -695.02136909 628.38546963 -700.85595703 626.70556641 C-709.55974592 624.17019993 -718.16903405 621.38683706 -726.7734375 618.53515625 C-728.3354712 618.01979287 -729.89759206 617.50469359 -731.45979309 616.98983765 C-734.74170721 615.90771584 -738.02309702 614.82402573 -741.30404663 613.73898315 C-746.44564792 612.03869204 -751.58851423 610.34225191 -756.73168945 608.64672852 C-758.01201034 608.22464756 -758.01201034 608.22464756 -759.3181963 607.79403973 C-761.03186757 607.2291144 -762.74554432 606.66420565 -764.45922661 606.09931374 C-767.00032556 605.26156859 -769.54131806 604.42350125 -772.08229065 603.58537292 C-784.44198883 599.50923412 -796.80939514 595.45743196 -809.1875 591.4375 C-810.83691454 590.90161281 -812.48632861 590.36572414 -814.13574219 589.82983398 C-816.57526687 589.03732583 -819.01481391 588.2448869 -821.45443726 587.4526825 C-832.01530223 584.02242189 -842.56986375 580.57283827 -853.125 577.125 C-855.1879046 576.4512462 -857.2508115 575.77749945 -859.3137207 575.10375977 C-866.58414859 572.72917612 -873.85445164 570.35421031 -881.12475586 567.97924805 C-888.37476323 565.61093875 -895.6248404 563.24284324 -902.875 560.875 C-903.89674316 560.54129395 -904.91848633 560.20758789 -905.97119141 559.86376953 C-920.8855033 554.9929718 -935.80343453 550.13339445 -950.72332764 545.27972412 C-967.50652712 539.81908099 -984.28008345 534.32911956 -1001.05285645 528.83654785 C-1016.32270601 523.83641548 -1031.5955264 518.84564739 -1046.875 513.875 C-1064.01372309 508.29943278 -1081.14824101 502.71109837 -1098.2800293 497.11425781 C-1100.34163323 496.44075251 -1102.40323805 495.76724991 -1104.46484375 495.09375 C-1105.49030807 494.75873474 -1106.5157724 494.42371948 -1107.5723114 494.07855225 C-1115.02774555 491.64325931 -1122.48437074 489.21163449 -1129.94140625 486.78125 C-1140.1613131 483.45019474 -1150.37906004 480.11259138 -1160.59472656 476.76855469 C-1164.03609293 475.64207578 -1167.47810204 474.5176083 -1170.92089844 473.39550781 C-1174.50267981 472.22778875 -1178.08248741 471.05423765 -1181.66055298 469.87518311 C-1183.4809447 469.27680779 -1185.30329643 468.68440516 -1187.12573242 468.09228516 C-1201.19793026 463.43499491 -1212.93735535 456.70725114 -1220 443 C-1222.84134615 437.00958069 -1223.4846303 431.71409437 -1223.375 425.125 C-1223.36412354 424.24021973 -1223.35324707 423.35543945 -1223.34204102 422.44384766 C-1223.02640005 409.52996313 -1218.77857709 400.29572426 -1209.375 391.25 C-1197.31647763 381.69270277 -1180.7597291 378.1190213 -1166.375 373.5 C-1163.90062708 372.69885679 -1161.42650905 371.89692595 -1158.95263672 371.09423828 C-1153.97297734 369.47967711 -1148.99201019 367.86926106 -1144.00976562 366.26269531 C-1137.85210558 364.2765354 -1131.69819 362.27915412 -1125.546875 360.2734375 C-1124.66939606 359.98732605 -1123.79191711 359.7012146 -1122.8878479 359.40643311 C-1121.15570393 358.84156448 -1119.42357679 358.27664422 -1117.69146729 357.71166992 C-1114.24172518 356.58705186 -1110.79123208 355.4647482 -1107.34072876 354.34246826 C-1094.72376244 350.23868806 -1082.11168547 346.11997542 -1069.5 342 C-1054.23193117 337.01231072 -1038.96152583 332.03191645 -1023.6875 327.0625 C-1007.78701528 321.88919345 -991.89233974 316.69827139 -976 311.5 C-958.38967265 305.73978707 -940.77566303 299.99111397 -923.15576172 294.26025391 C-913.39938219 291.08648083 -903.64564595 287.90475891 -893.89453125 284.71484375 C-891.6630061 283.98510272 -889.43147941 283.25536637 -887.19995117 282.52563477 C-882.92497157 281.12761015 -878.65046861 279.72814067 -874.3762207 278.32788086 C-865.64794124 275.47174389 -856.91758603 272.64559505 -848.13037109 269.97509766 C-841.55160643 267.92583966 -835.03035168 265.69770014 -828.5 263.5 C-825.67771208 262.55019777 -822.85469261 261.6026135 -820.03125 260.65625 C-818.79955078 260.24181641 -817.56785156 259.82738281 -816.29882812 259.40039062 C-812.91542203 258.28167922 -809.51288049 257.2351449 -806.10400391 256.19677734 C-797.79696575 253.65201723 -789.55346005 250.92155399 -781.3046875 248.1953125 C-779.6020991 247.63371393 -777.89946643 247.07224956 -776.1967926 246.51091003 C-772.6085079 245.32772074 -769.02045256 244.14383976 -765.43258667 242.9593811 C-756.11112985 239.88227176 -746.78797731 236.81030579 -737.46484375 233.73828125 C-736.55327829 233.4378787 -735.64171284 233.13747616 -734.70252419 232.8279705 C-720.95555099 228.29801462 -707.20379433 223.7834655 -693.4375 219.3125 C-692.63213806 219.05092102 -691.82677612 218.78934204 -690.99700928 218.51983643 C-687.80433647 217.4830601 -684.61159488 216.44649622 -681.41870117 215.41040039 C-671.82717278 212.29690457 -662.24222039 209.16326716 -652.65670776 206.03131104 C-646.43590734 203.99894675 -640.21464001 201.96801215 -633.99345398 199.93682861 C-629.13050692 198.34902096 -624.2676942 196.7608054 -619.40527344 195.17138672 C-614.0624039 193.4250554 -608.71899223 191.68039277 -603.375 189.9375 C-602.50753143 189.65457092 -601.64006287 189.37164185 -600.74630737 189.08013916 C-586.53811209 184.44922956 -572.30378437 179.9029671 -558.0625 175.375 C-542.9491298 170.56920403 -527.87334814 165.66939533 -512.83837891 160.62402344 C-500.2255794 156.3935502 -487.58529666 152.24957928 -474.9375 148.125 C-473.89434631 147.78477814 -472.85119263 147.44455627 -471.77642822 147.09402466 C-464.51828952 144.72728902 -457.25926617 142.3632748 -450 140 C-448.1355758 139.39291478 -446.27115512 138.78581877 -444.40673828 138.17871094 C-437.36804267 135.8868237 -430.32930272 133.59507369 -423.29003906 131.30493164 C-413.5908468 128.14895979 -403.89387907 124.98627402 -394.19921875 121.81640625 C-393.11412018 121.46170258 -392.02902161 121.1069989 -390.91104126 120.74154663 C-385.66300725 119.0260095 -380.41523295 117.30968717 -375.16796875 115.59179688 C-366.00915119 112.59599975 -356.84391333 109.62494119 -347.65625 106.71875 C-334.02973997 102.40315777 -320.45962935 97.9151636 -306.88388062 93.44314575 C-299.08238867 90.87328027 -291.27945499 88.30779667 -283.4765625 85.7421875 C-282.70786772 85.48940851 -281.93917294 85.23662952 -281.14718437 84.97619057 C-268.5006272 80.81774617 -255.84831396 76.67736104 -243.1875 72.5625 C-242.3600528 72.29355927 -241.53260559 72.02461853 -240.68008423 71.74752808 C-237.36236559 70.66927863 -234.04462858 69.59108579 -230.7268219 68.5131073 C-221.0308032 65.36181403 -211.33990893 62.19483348 -201.64874268 59.02865601 C-193.39666791 56.33280336 -185.14409161 53.63848594 -176.89154053 50.9440918 C-175.01982123 50.33297298 -173.14811619 49.72181048 -171.27642822 49.1105957 C-153.05088268 43.15908634 -134.8194548 37.22647213 -116.5703125 31.34765625 C-115.29151853 30.93545783 -114.01273032 30.52324151 -112.73394775 30.11100769 C-106.83205489 28.20884728 -100.92947409 26.30893584 -95.02386093 24.41835308 C-81.49725281 20.08672974 -67.99963535 15.69065793 -54.56265831 11.0876255 C-50.568441 9.72241215 -46.56917132 8.37204232 -42.57010365 7.0211134 C-39.39787132 5.94741986 -36.23247556 4.85898672 -33.07223511 3.75015259 C-29.58404425 2.52663259 -26.08515341 1.34011422 -22.58203125 0.16015625 C-21.56704559 -0.20740784 -20.55205994 -0.57497192 -19.50631714 -0.95367432 C-11.97124037 -3.43370471 -7.34896012 -2.66219794 0 0 Z " fill="#171846" transform="translate(1334,3)"/>
<path d="M0 0 C0.05142513 64.52204315 0.09912267 129.04408874 0.12702942 193.56614685 C0.12744359 194.52128779 0.12785776 195.47642872 0.12828448 196.46051332 C0.13726347 217.21893582 0.14557398 237.97735854 0.15319599 258.73578158 C0.15693796 268.91589545 0.16082762 279.09600926 0.16479492 289.27612305 C0.1651872 290.28915985 0.16557948 291.30219665 0.16598364 292.34593154 C0.17876476 325.17382174 0.20129652 358.00169644 0.22889166 390.82957726 C0.25720072 424.56807958 0.27565895 458.30657332 0.28174497 492.04508731 C0.28260942 496.81181114 0.28358633 501.57853493 0.28463173 506.34525871 C0.284834 507.28340654 0.28503627 508.22155438 0.28524467 509.18813093 C0.28878805 524.28195169 0.30269749 539.37574591 0.3204961 554.46955586 C0.33817358 569.64863188 0.34489999 584.82768162 0.34050413 600.00676758 C0.33822464 609.02187661 0.3442856 618.03688935 0.36239263 627.05198098 C0.37367199 633.08033929 0.37397015 639.10863481 0.36549544 645.13699752 C0.36098204 648.5678742 0.36109462 651.99856922 0.37464955 655.42942614 C0.48455271 689.13771243 0.48455271 689.13771243 -6.6875 702.3125 C-7.03635254 702.97709229 -7.38520508 703.64168457 -7.74462891 704.32641602 C-10.87075758 710.10350742 -14.48773106 715.2109562 -19 720 C-20.07121094 721.15048828 -20.07121094 721.15048828 -21.1640625 722.32421875 C-34.27761483 735.24040992 -52.21305387 741.17036732 -70.29852486 741.13028526 C-71.67891586 741.13320041 -71.67891586 741.13320041 -73.08719355 741.13617444 C-76.17574735 741.14149538 -79.2642564 741.13973231 -82.35281372 741.13803101 C-84.58778047 741.14044937 -86.82274677 741.14331173 -89.05771244 741.14658034 C-95.20381251 741.15433437 -101.34990141 741.15595281 -107.49600577 741.15663147 C-113.4429031 741.15828221 -119.3897948 741.16461723 -125.33668857 741.17095293 C-136.75973905 741.18302667 -148.18278893 741.19168996 -159.60584396 741.19799107 C-177.75303564 741.20803429 -195.90020858 741.22729402 -214.04738899 741.24953346 C-221.03429772 741.25806373 -228.02120677 741.26633031 -235.00811577 741.27463722 C-235.7843999 741.27556223 -236.56068403 741.27648724 -237.36049193 741.27744028 C-255.83912162 741.29943069 -274.31775339 741.31922009 -292.79638672 741.33789062 C-293.604855 741.3387103 -294.41332328 741.33952998 -295.2462906 741.3403745 C-314.09363523 741.3594442 -332.94097975 741.37640803 -351.78833008 741.38873291 C-352.598042 741.38926258 -353.40775393 741.38979225 -354.24200258 741.39033796 C-360.76818283 741.39458935 -367.29436313 741.39876574 -373.82054343 741.40292276 C-400.76700077 741.42014585 -427.71343252 741.44739218 -454.65986788 741.48608314 C-458.47095704 741.49154437 -462.28204637 741.49687745 -466.09313583 741.50212479 C-467.21812455 741.50367636 -467.21812455 741.50367636 -468.36584031 741.50525927 C-480.40357979 741.52154092 -492.44130125 741.52711039 -504.47905069 741.52842245 C-516.5958671 741.529932 -528.71263491 741.5421615 -540.82942988 741.56517886 C-547.38586175 741.57732703 -553.94222439 741.58438511 -560.49866867 741.57846642 C-566.51343274 741.57313418 -572.52801681 741.5817708 -578.54275094 741.60102279 C-580.70642259 741.6055619 -582.87011208 741.60517854 -585.03377987 741.59907441 C-602.43020717 741.55441736 -619.93859806 742.5831748 -636.6875 747.6875 C-637.54359863 747.94096191 -638.39969727 748.19442383 -639.28173828 748.45556641 C-648.20719562 751.20325567 -656.63330303 754.8776218 -665 759 C-665.66225586 759.32226562 -666.32451172 759.64453125 -667.00683594 759.9765625 C-696.18092536 774.32304126 -720.05237968 797.45892503 -736.79296875 825.15625 C-737.19128906 825.7646875 -737.58960938 826.373125 -738 827 C-738.33 827 -738.66 827 -739 827 C-739 633.29 -739 439.58 -739 240 C-727.12 236.04 -715.24 232.08 -703 228 C-693.62633446 224.86122059 -693.62633446 224.86122059 -684.25390625 221.71875 C-680.59618568 220.50706308 -676.92376882 219.36030439 -673.23657227 218.24169922 C-665.10687668 215.74576729 -657.0354451 213.08173278 -648.9609375 210.4140625 C-647.32409863 209.87438236 -645.68721607 209.33483474 -644.05029297 208.79541016 C-640.60173494 207.65879013 -637.15340483 206.5214826 -633.70526123 205.38360596 C-624.78382285 202.43975188 -615.860611 199.5012794 -606.9375 196.5625 C-606.06266338 196.2743404 -605.18782677 195.9861808 -604.28647995 195.68928909 C-589.9894629 190.98025451 -575.68780338 186.28587625 -561.375 181.625 C-560.54087585 181.35294739 -559.70675171 181.08089478 -558.84735107 180.80059814 C-556.53145093 180.04550332 -554.21505588 179.29195054 -551.8984375 178.5390625 C-550.05258057 177.93892334 -550.05258057 177.93892334 -548.16943359 177.32666016 C-544.80829905 176.24604608 -541.43311915 175.21522311 -538.0559082 174.18603516 C-530.84282554 171.97201304 -523.67886793 169.61995421 -516.516325 167.24879837 C-514.13272954 166.45977962 -511.74857367 165.67247479 -509.36427307 164.8855896 C-505.95100022 163.75903321 -502.53789876 162.63196004 -499.12493896 161.50445557 C-475.2389826 153.61474459 -451.35378215 145.72888914 -427.375 138.125 C-403.74151883 130.62854865 -380.20614523 122.83863439 -356.66338348 115.0631485 C-334.21759783 107.6503689 -311.76702574 100.26682758 -289.23388672 93.12304688 C-267.59841695 86.25703903 -246.05337065 79.11847639 -224.5 72 C-179.19793082 57.03799173 -179.19793082 57.03799173 -157 50 C-135.2464007 43.1016194 -113.57403354 35.96172248 -91.90211105 28.81178284 C-89.0809822 27.88109725 -86.25976143 26.95069084 -83.43850708 26.02038574 C-62.17322909 19.00821211 -62.17322909 19.00821211 -40.91041088 11.98858452 C-34.98472007 10.03120731 -29.05753151 8.07851143 -23.12765503 6.1338501 C-21.35620618 5.5518408 -19.58545376 4.96770682 -17.81546021 4.38128662 C-15.48156489 3.60818041 -13.14548333 2.84212267 -10.80859375 2.078125 C-9.56907959 1.66981445 -8.32956543 1.26150391 -7.05249023 0.84082031 C-4 0 -4 0 0 0 Z " fill="#171846" transform="translate(2126,718)"/>
<path d="M0 0 C1.43171529 0.31115717 2.86301073 0.62424658 4.29412842 0.93814087 C5.4897748 1.19935447 5.4897748 1.19935447 6.70957565 1.46584511 C9.64668608 2.15081508 12.47406415 3.0511094 15.328125 4.0234375 C17.02388672 4.59578125 17.02388672 4.59578125 18.75390625 5.1796875 C19.90761719 5.57414063 21.06132813 5.96859375 22.25 6.375 C28.9209277 8.64145335 35.58659735 10.89653969 42.328125 12.9453125 C50.82103254 15.53016628 59.22119499 18.38695443 67.63427734 21.21826172 C69.74532615 21.92808189 71.8570262 22.63594092 73.96875 23.34375 C75.20044922 23.75818359 76.43214844 24.17261719 77.70117188 24.59960938 C81.08457797 25.71832078 84.48711951 26.7648551 87.89599609 27.80322266 C96.20303425 30.34798277 104.44653995 33.07844601 112.6953125 35.8046875 C114.3979009 36.36628607 116.10053357 36.92775044 117.8032074 37.48908997 C121.3914921 38.67227926 124.97954744 39.85616024 128.56741333 41.0406189 C137.88887015 44.11772824 147.21202269 47.18969421 156.53515625 50.26171875 C157.44672171 50.5621213 158.35828716 50.86252384 159.29747581 51.1720295 C173.04444901 55.70198538 186.79620567 60.2165345 200.5625 64.6875 C201.36786194 64.94907898 202.17322388 65.21065796 203.00299072 65.48016357 C206.19566353 66.5169399 209.38840512 67.55350378 212.58129883 68.58959961 C222.17566355 71.70401613 231.76345592 74.83856405 241.35180664 77.97143555 C250.56742476 80.98232342 259.78374346 83.99106699 269 87 C270.00718079 87.32885193 271.01436157 87.65770386 272.05206299 87.996521 C277.96577143 89.92725906 283.87984858 91.85686093 289.79443359 93.78491211 C291.60330364 94.37473329 293.4120649 94.96488825 295.22070312 95.55541992 C297.73146441 96.37512923 300.24263784 97.19356458 302.75390625 98.01171875 C303.45620865 98.24130783 304.15851105 98.47089691 304.88209534 98.70744324 C309.05728987 100.06602287 313.24240379 101.3889106 317.43561172 102.69091415 C326.98774451 105.65859072 336.49112317 108.76377661 345.98828125 111.90234375 C347.68658332 112.46250886 349.38492831 113.0225439 351.08331299 113.5824585 C354.65365911 114.75970011 358.22378688 115.93760035 361.79373169 117.11605835 C371.07493254 120.17965751 380.35777719 123.23827058 389.640625 126.296875 C391.00124904 126.74523744 391.00124904 126.74523744 392.38936043 127.2026577 C410.06100108 133.0255256 427.74715169 138.8024644 445.44529724 144.54426575 C452.29622228 146.76824132 459.14249014 149.00637164 465.98828125 151.24609375 C467.10282181 151.61061142 468.21736237 151.97512909 469.36567688 152.35069275 C478.25690112 155.25869158 478.25690112 155.25869158 482.54983521 156.66513062 C492.30162239 159.85983646 502.05090397 163.04092169 511.86962891 166.02490234 C519.16476908 168.29730835 526.39284985 170.78125878 533.63427734 173.21826172 C540.56887076 175.5499531 547.49960529 177.87170663 554.5 180 C562.93599747 182.56475217 571.27834251 185.40618665 579.63427734 188.21826172 C581.74532615 188.92808189 583.8570262 189.63594092 585.96875 190.34375 C587.81629883 190.96540039 587.81629883 190.96540039 589.70117188 191.59960938 C593.08457797 192.71832078 596.48711951 193.7648551 599.89599609 194.80322266 C608.20303464 197.34798289 616.44653607 200.07845698 624.6953125 202.8046875 C626.39986911 203.36692749 628.10447017 203.92903269 629.80911255 204.49101257 C633.39936755 205.67483693 636.98939267 206.85935453 640.57922363 208.04446411 C649.84082073 211.10186042 659.10396993 214.1545488 668.3671875 217.20703125 C669.27352936 217.50573309 670.17987122 217.80443493 671.11367798 218.11218834 C690.28404325 224.42958883 709.47021924 230.69759166 728.67285156 236.91625977 C731.78641161 237.93042861 734.89347217 238.96449072 738 240 C738 433.05 738 626.1 738 825 C735.26323532 821.57904415 733.04094207 818.56155849 730.8125 814.875 C726.9990034 808.82684297 722.67483363 803.40153052 718 798 C717.154375 797.01902344 716.30875 796.03804687 715.4375 795.02734375 C695.96434256 772.87514975 670.54665693 757.88057872 643 748 C641.948125 747.60941406 640.89625 747.21882813 639.8125 746.81640625 C621.33258215 740.50079603 601.75837545 739.40583836 582.40390015 739.50793457 C580.13277101 739.50491453 577.86164366 739.50012816 575.59052145 739.49375582 C569.42361761 739.48138114 563.25697862 739.49343942 557.09009337 739.50983071 C551.09952102 739.52173956 545.10898896 739.51460898 539.11841585 739.50792925 C526.87992769 739.49484707 514.64151029 739.49955938 502.40302658 739.5141449 C485.68852112 739.53382073 468.97409768 739.52710596 452.25958987 739.51357108 C444.45342872 739.50728469 436.64726676 739.50227384 428.84110451 739.49759674 C428.05997328 739.49712726 427.27884205 739.49665777 426.47404018 739.49617406 C407.92523819 739.4853219 389.37644071 739.48696068 370.82763672 739.49072266 C370.01708282 739.49088239 369.20652892 739.49104213 368.37141279 739.49120671 C356.03927507 739.49365311 343.70713753 739.49675396 331.375 739.5 C318.20621752 739.50346543 305.03743503 739.50668699 291.86865234 739.50927734 C291.05702922 739.50944165 290.24540609 739.50960595 289.40918833 739.50977523 C270.86977632 739.51346032 252.33037372 739.51354979 233.79096413 739.50240326 C232.62155765 739.50170235 232.62155765 739.50170235 231.4285268 739.50098729 C223.64475681 739.49624001 215.86098751 739.49086558 208.07721863 739.48455582 C191.38076244 739.47115939 174.68440704 739.46867168 157.98795521 739.48852597 C145.82516768 739.50282237 133.66244595 739.50340185 121.49965696 739.48978293 C114.91559019 739.48284883 108.3316586 739.48295222 101.74760437 739.5003643 C95.71658368 739.51621193 89.68585897 739.51358506 83.65484424 739.49651426 C81.4776669 739.49360434 79.30046755 739.49741612 77.12331788 739.50877243 C65.37836099 739.56617059 55.11539296 739.19638729 44 735 C43.28224156 734.73560607 42.56448312 734.47121215 41.82497442 734.19880629 C32.16187014 730.32909484 25.16202375 724.33305716 18 717 C17.32195313 716.34257813 16.64390625 715.68515625 15.9453125 715.0078125 C6.59272984 705.32269356 -0.12667799 689.50830852 -0.1241985 676.01241559 C-0.12644579 675.02502201 -0.12869308 674.03762843 -0.13100848 673.02031383 C-0.12838146 671.94088965 -0.12575445 670.86146547 -0.12304783 669.74933147 C-0.12420167 668.59377977 -0.12535552 667.43822807 -0.12654433 666.24765965 C-0.12874044 663.03011544 -0.12643613 659.8126101 -0.12226619 656.59506898 C-0.11883457 653.09851875 -0.1212023 649.60197175 -0.12284368 646.10542089 C-0.12491888 639.97404934 -0.12327116 633.84268749 -0.11920547 627.71131706 C-0.1131767 618.59415759 -0.11286909 609.47700424 -0.11374746 600.35984313 C-0.11506222 585.02420232 -0.11171671 569.68856581 -0.10573006 554.35292625 C-0.09981631 539.165173 -0.09596477 523.97742153 -0.09487724 508.78966713 C-0.0948085 507.84590867 -0.09473976 506.90215021 -0.09466894 505.92979301 C-0.09433062 501.13706722 -0.09402923 496.34434143 -0.09374207 491.55161563 C-0.09164075 457.59048016 -0.08490087 423.62934704 -0.07543945 389.66821289 C-0.06625749 356.67211927 -0.05917266 323.67602629 -0.05493164 290.67993164 C-0.05480011 289.6631372 -0.05466859 288.64634275 -0.05453308 287.59873635 C-0.05321457 277.38781911 -0.05193876 267.17690186 -0.05069422 256.96598461 C-0.04815789 236.16452295 -0.04533664 215.36306133 -0.04234314 194.56159973 C-0.04220585 193.60514822 -0.04206856 192.64869672 -0.04192711 191.66326183 C-0.03272393 127.77550691 -0.01687844 63.8877533 0 0 Z " fill="#171846" transform="translate(528,720)"/>
</svg>
